<mxfile host="app.diagrams.net" agent="Mozilla/5.0 (Windows NT 10.0; Win64; x64; rv:139.0) Gecko/20100101 Firefox/139.0" version="27.1.4">
  <diagram name="Page-1" id="nektFSYt_l_-SahTSdUY">
    <mxGraphModel grid="1" page="0" gridSize="10" guides="1" tooltips="1" connect="1" arrows="1" fold="1" pageScale="1" pageWidth="850" pageHeight="1100" math="0" shadow="0">
      <root>
        <mxCell id="0" />
        <mxCell id="1" parent="0" />
        <mxCell id="fkUaX-CMWPnIh5y6sNUz-31" value="" style="endArrow=none;dashed=1;html=1;dashPattern=1 3;strokeWidth=2;rounded=0;" edge="1" parent="1">
          <mxGeometry width="50" height="50" relative="1" as="geometry">
            <mxPoint x="515" y="480" as="sourcePoint" />
            <mxPoint x="514.62" y="97.5" as="targetPoint" />
          </mxGeometry>
        </mxCell>
        <mxCell id="fkUaX-CMWPnIh5y6sNUz-49" value="" style="endArrow=none;dashed=1;html=1;dashPattern=1 3;strokeWidth=2;rounded=0;" edge="1" parent="1">
          <mxGeometry width="50" height="50" relative="1" as="geometry">
            <mxPoint x="1050" y="480" as="sourcePoint" />
            <mxPoint x="1049.6200000000001" y="97.5" as="targetPoint" />
          </mxGeometry>
        </mxCell>
        <mxCell id="HECIfwBaCaFRKkH54YTg-11" value="" style="endArrow=none;dashed=1;html=1;dashPattern=1 3;strokeWidth=2;rounded=0;" edge="1" parent="1" target="fkUaX-CMWPnIh5y6sNUz-11">
          <mxGeometry width="50" height="50" relative="1" as="geometry">
            <mxPoint x="880" y="480" as="sourcePoint" />
            <mxPoint x="879.8100000000001" y="97.5" as="targetPoint" />
          </mxGeometry>
        </mxCell>
        <mxCell id="fkUaX-CMWPnIh5y6sNUz-35" value="" style="endArrow=none;dashed=1;html=1;dashPattern=1 3;strokeWidth=2;rounded=0;" edge="1" parent="1">
          <mxGeometry width="50" height="50" relative="1" as="geometry">
            <mxPoint x="720" y="480" as="sourcePoint" />
            <mxPoint x="719.62" y="97.5" as="targetPoint" />
          </mxGeometry>
        </mxCell>
        <mxCell id="fkUaX-CMWPnIh5y6sNUz-5" value="&lt;font style=&quot;font-size: 10px;&quot;&gt;Técnico de laboratorio,&lt;/font&gt;&lt;div&gt;&lt;font style=&quot;font-size: 10px;&quot;&gt;&amp;nbsp;Administrador&lt;/font&gt;&lt;/div&gt;" style="text;html=1;align=center;verticalAlign=middle;resizable=0;points=[];autosize=1;strokeColor=none;fillColor=none;" vertex="1" parent="1">
          <mxGeometry x="-10" y="20" width="130" height="40" as="geometry" />
        </mxCell>
        <mxCell id="fkUaX-CMWPnIh5y6sNUz-6" value="" style="shape=umlLifeline;perimeter=lifelinePerimeter;whiteSpace=wrap;html=1;container=1;dropTarget=0;collapsible=0;recursiveResize=0;outlineConnect=0;portConstraint=eastwest;newEdgeStyle={&quot;curved&quot;:0,&quot;rounded&quot;:0};participant=umlActor;" vertex="1" parent="1">
          <mxGeometry x="45" y="60" width="20" height="80" as="geometry" />
        </mxCell>
        <mxCell id="fkUaX-CMWPnIh5y6sNUz-7" value="" style="html=1;points=[[0,0,0,0,5],[0,1,0,0,-5],[1,0,0,0,5],[1,1,0,0,-5]];perimeter=orthogonalPerimeter;outlineConnect=0;targetShapes=umlLifeline;portConstraint=eastwest;newEdgeStyle={&quot;curved&quot;:0,&quot;rounded&quot;:0};" vertex="1" parent="1">
          <mxGeometry x="50" y="140" width="10" height="340" as="geometry" />
        </mxCell>
        <mxCell id="fkUaX-CMWPnIh5y6sNUz-8" value="&lt;div&gt;&lt;font style=&quot;font-size: 10px;&quot;&gt;V_Generación_&lt;/font&gt;&lt;/div&gt;&lt;div&gt;&lt;font style=&quot;font-size: 10px;&quot;&gt;Informe&lt;/font&gt;&lt;/div&gt;" style="html=1;whiteSpace=wrap;fillColor=#D5E8D4;" vertex="1" parent="1">
          <mxGeometry x="180" y="80" width="70" height="27.5" as="geometry" />
        </mxCell>
        <mxCell id="fkUaX-CMWPnIh5y6sNUz-9" value="&lt;font style=&quot;font-size: 10px;&quot;&gt;C_Admin_Informe&lt;/font&gt;" style="html=1;whiteSpace=wrap;fillColor=#DAE8FC;" vertex="1" parent="1">
          <mxGeometry x="465" y="80" width="100" height="27.5" as="geometry" />
        </mxCell>
        <mxCell id="fkUaX-CMWPnIh5y6sNUz-10" value="&lt;font style=&quot;font-size: 10px;&quot;&gt;C_sqlx&lt;/font&gt;" style="html=1;whiteSpace=wrap;fillColor=#E1D5E7;" vertex="1" parent="1">
          <mxGeometry x="685" y="80" width="70" height="27.5" as="geometry" />
        </mxCell>
        <mxCell id="fkUaX-CMWPnIh5y6sNUz-12" value="&lt;font style=&quot;font-size: 10px;&quot;&gt;Informe&lt;/font&gt;" style="html=1;whiteSpace=wrap;fillColor=#FFE6CC;" vertex="1" parent="1">
          <mxGeometry x="1015" y="80" width="70" height="27.5" as="geometry" />
        </mxCell>
        <mxCell id="fkUaX-CMWPnIh5y6sNUz-15" value="" style="endArrow=block;endFill=1;html=1;edgeStyle=orthogonalEdgeStyle;align=left;verticalAlign=top;rounded=0;" edge="1" parent="1">
          <mxGeometry x="-1" relative="1" as="geometry">
            <mxPoint x="60" y="170" as="sourcePoint" />
            <mxPoint x="210" y="170" as="targetPoint" />
          </mxGeometry>
        </mxCell>
        <mxCell id="fkUaX-CMWPnIh5y6sNUz-16" value="&lt;font style=&quot;font-size: 8px;&quot;&gt;1.Revisa el informe técnico generado&lt;/font&gt;" style="edgeLabel;resizable=0;html=1;align=left;verticalAlign=bottom;" connectable="0" vertex="1" parent="fkUaX-CMWPnIh5y6sNUz-15">
          <mxGeometry x="-1" relative="1" as="geometry" />
        </mxCell>
        <mxCell id="fkUaX-CMWPnIh5y6sNUz-17" value="" style="html=1;points=[[0,0,0,0,5],[0,1,0,0,-5],[1,0,0,0,5],[1,1,0,0,-5]];perimeter=orthogonalPerimeter;outlineConnect=0;targetShapes=umlLifeline;portConstraint=eastwest;newEdgeStyle={&quot;curved&quot;:0,&quot;rounded&quot;:0};" vertex="1" parent="1">
          <mxGeometry x="210" y="140" width="10" height="150" as="geometry" />
        </mxCell>
        <mxCell id="fkUaX-CMWPnIh5y6sNUz-18" value="" style="endArrow=none;dashed=1;html=1;dashPattern=1 3;strokeWidth=2;rounded=0;" edge="1" parent="1" source="fkUaX-CMWPnIh5y6sNUz-17">
          <mxGeometry width="50" height="50" relative="1" as="geometry">
            <mxPoint x="160" y="150" as="sourcePoint" />
            <mxPoint x="215" y="100" as="targetPoint" />
          </mxGeometry>
        </mxCell>
        <mxCell id="fkUaX-CMWPnIh5y6sNUz-19" value="&lt;font style=&quot;font-size: 8px;&quot;&gt;2.Muestra opción &quot;Confirmar Informe&quot;&lt;/font&gt;" style="html=1;verticalAlign=bottom;endArrow=open;dashed=1;endSize=8;curved=0;rounded=0;" edge="1" parent="1">
          <mxGeometry relative="1" as="geometry">
            <mxPoint x="210.00000000000006" y="200.00000000000006" as="sourcePoint" />
            <mxPoint x="60" y="200.00000000000006" as="targetPoint" />
          </mxGeometry>
        </mxCell>
        <mxCell id="fkUaX-CMWPnIh5y6sNUz-20" value="&lt;br&gt;&lt;div&gt;&lt;br&gt;&lt;/div&gt;" style="edgeLabel;html=1;align=center;verticalAlign=middle;resizable=0;points=[];" connectable="0" vertex="1" parent="fkUaX-CMWPnIh5y6sNUz-19">
          <mxGeometry x="0.8736" y="4" relative="1" as="geometry">
            <mxPoint as="offset" />
          </mxGeometry>
        </mxCell>
        <mxCell id="fkUaX-CMWPnIh5y6sNUz-23" value="" style="endArrow=block;endFill=1;html=1;edgeStyle=orthogonalEdgeStyle;align=left;verticalAlign=top;rounded=0;" edge="1" parent="1">
          <mxGeometry x="-1" relative="1" as="geometry">
            <mxPoint x="60" y="230" as="sourcePoint" />
            <mxPoint x="210" y="230" as="targetPoint" />
          </mxGeometry>
        </mxCell>
        <mxCell id="fkUaX-CMWPnIh5y6sNUz-24" value="&lt;font style=&quot;font-size: 8px;&quot;&gt;3.Selecciona “Confirmar Informe”&lt;/font&gt;" style="edgeLabel;resizable=0;html=1;align=left;verticalAlign=bottom;" connectable="0" vertex="1" parent="fkUaX-CMWPnIh5y6sNUz-23">
          <mxGeometry x="-1" relative="1" as="geometry">
            <mxPoint as="offset" />
          </mxGeometry>
        </mxCell>
        <mxCell id="fkUaX-CMWPnIh5y6sNUz-27" value="" style="endArrow=block;endFill=1;html=1;edgeStyle=orthogonalEdgeStyle;align=left;verticalAlign=top;rounded=0;" edge="1" parent="1">
          <mxGeometry x="-1" relative="1" as="geometry">
            <mxPoint x="60" y="280" as="sourcePoint" />
            <mxPoint x="210" y="280" as="targetPoint" />
          </mxGeometry>
        </mxCell>
        <mxCell id="fkUaX-CMWPnIh5y6sNUz-28" value="&lt;font style=&quot;font-size: 8px;&quot;&gt;5.Confirma la acción explícitamente&lt;/font&gt;" style="edgeLabel;resizable=0;html=1;align=left;verticalAlign=bottom;" connectable="0" vertex="1" parent="fkUaX-CMWPnIh5y6sNUz-27">
          <mxGeometry x="-1" relative="1" as="geometry">
            <mxPoint as="offset" />
          </mxGeometry>
        </mxCell>
        <mxCell id="fkUaX-CMWPnIh5y6sNUz-30" value="" style="html=1;points=[[0,0,0,0,5],[0,1,0,0,-5],[1,0,0,0,5],[1,1,0,0,-5]];perimeter=orthogonalPerimeter;outlineConnect=0;targetShapes=umlLifeline;portConstraint=eastwest;newEdgeStyle={&quot;curved&quot;:0,&quot;rounded&quot;:0};" vertex="1" parent="1">
          <mxGeometry x="510" y="290" width="10" height="140" as="geometry" />
        </mxCell>
        <mxCell id="fkUaX-CMWPnIh5y6sNUz-32" value="" style="endArrow=block;endFill=1;html=1;edgeStyle=orthogonalEdgeStyle;align=left;verticalAlign=top;rounded=0;" edge="1" parent="1">
          <mxGeometry x="-1" relative="1" as="geometry">
            <mxPoint x="520" y="320" as="sourcePoint" />
            <mxPoint x="715" y="320" as="targetPoint" />
          </mxGeometry>
        </mxCell>
        <mxCell id="fkUaX-CMWPnIh5y6sNUz-33" value="&lt;font style=&quot;font-size: 8px;&quot;&gt;8.Prepara la solicitud y entrega información a sqlx&lt;/font&gt;" style="edgeLabel;resizable=0;html=1;align=left;verticalAlign=bottom;" connectable="0" vertex="1" parent="fkUaX-CMWPnIh5y6sNUz-32">
          <mxGeometry x="-1" relative="1" as="geometry" />
        </mxCell>
        <mxCell id="fkUaX-CMWPnIh5y6sNUz-34" value="" style="html=1;points=[[0,0,0,0,5],[0,1,0,0,-5],[1,0,0,0,5],[1,1,0,0,-5]];perimeter=orthogonalPerimeter;outlineConnect=0;targetShapes=umlLifeline;portConstraint=eastwest;newEdgeStyle={&quot;curved&quot;:0,&quot;rounded&quot;:0};" vertex="1" parent="1">
          <mxGeometry x="715" y="290" width="10" height="150" as="geometry" />
        </mxCell>
        <mxCell id="fkUaX-CMWPnIh5y6sNUz-40" value="" style="endArrow=block;endFill=1;html=1;edgeStyle=orthogonalEdgeStyle;align=left;verticalAlign=top;rounded=0;" edge="1" parent="1">
          <mxGeometry x="-1" relative="1" as="geometry">
            <mxPoint x="725" y="329.62" as="sourcePoint" />
            <mxPoint x="875" y="330" as="targetPoint" />
          </mxGeometry>
        </mxCell>
        <mxCell id="fkUaX-CMWPnIh5y6sNUz-41" value="&lt;font style=&quot;font-size: 8px;&quot;&gt;9.Solicita registrar confirmación en BD&lt;/font&gt;" style="edgeLabel;resizable=0;html=1;align=left;verticalAlign=bottom;" connectable="0" vertex="1" parent="fkUaX-CMWPnIh5y6sNUz-40">
          <mxGeometry x="-1" relative="1" as="geometry" />
        </mxCell>
        <mxCell id="fkUaX-CMWPnIh5y6sNUz-42" value="" style="html=1;points=[[0,0,0,0,5],[0,1,0,0,-5],[1,0,0,0,5],[1,1,0,0,-5]];perimeter=orthogonalPerimeter;outlineConnect=0;targetShapes=umlLifeline;portConstraint=eastwest;newEdgeStyle={&quot;curved&quot;:0,&quot;rounded&quot;:0};" vertex="1" parent="1">
          <mxGeometry x="875" y="290" width="10" height="130" as="geometry" />
        </mxCell>
        <mxCell id="fkUaX-CMWPnIh5y6sNUz-43" value="" style="endArrow=none;dashed=1;html=1;dashPattern=1 3;strokeWidth=2;rounded=0;" edge="1" parent="1" source="fkUaX-CMWPnIh5y6sNUz-11">
          <mxGeometry width="50" height="50" relative="1" as="geometry">
            <mxPoint x="880.19" y="290" as="sourcePoint" />
            <mxPoint x="879.8100000000001" y="97.5" as="targetPoint" />
          </mxGeometry>
        </mxCell>
        <mxCell id="fkUaX-CMWPnIh5y6sNUz-45" value="" style="endArrow=block;endFill=1;html=1;edgeStyle=orthogonalEdgeStyle;align=left;verticalAlign=top;rounded=0;" edge="1" parent="1">
          <mxGeometry x="-1" relative="1" as="geometry">
            <mxPoint x="885" y="350" as="sourcePoint" />
            <mxPoint x="1045" y="350" as="targetPoint" />
          </mxGeometry>
        </mxCell>
        <mxCell id="fkUaX-CMWPnIh5y6sNUz-46" value="&lt;font style=&quot;font-size: 8px;&quot;&gt;10.Registra fecha/hora, bloquea edición,&amp;nbsp;&lt;/font&gt;&lt;div&gt;&lt;font style=&quot;font-size: 8px;&quot;&gt;cambia estado&lt;/font&gt;&lt;/div&gt;" style="edgeLabel;resizable=0;html=1;align=left;verticalAlign=bottom;" connectable="0" vertex="1" parent="fkUaX-CMWPnIh5y6sNUz-45">
          <mxGeometry x="-1" relative="1" as="geometry" />
        </mxCell>
        <mxCell id="fkUaX-CMWPnIh5y6sNUz-48" value="" style="html=1;points=[[0,0,0,0,5],[0,1,0,0,-5],[1,0,0,0,5],[1,1,0,0,-5]];perimeter=orthogonalPerimeter;outlineConnect=0;targetShapes=umlLifeline;portConstraint=eastwest;newEdgeStyle={&quot;curved&quot;:0,&quot;rounded&quot;:0};" vertex="1" parent="1">
          <mxGeometry x="1045" y="290" width="10" height="140" as="geometry" />
        </mxCell>
        <mxCell id="fkUaX-CMWPnIh5y6sNUz-50" value="&lt;font style=&quot;font-size: 8px;&quot;&gt;11.Retorna confirmación exitosa a MySQL&lt;/font&gt;" style="html=1;verticalAlign=bottom;endArrow=open;dashed=1;endSize=8;curved=0;rounded=0;entryX=1.339;entryY=0.803;entryDx=0;entryDy=0;entryPerimeter=0;" edge="1" parent="1" source="fkUaX-CMWPnIh5y6sNUz-48" target="fkUaX-CMWPnIh5y6sNUz-42">
          <mxGeometry x="0.0667" y="-5" relative="1" as="geometry">
            <mxPoint x="1035" y="390.00000000000006" as="sourcePoint" />
            <mxPoint x="895" y="395" as="targetPoint" />
            <mxPoint as="offset" />
          </mxGeometry>
        </mxCell>
        <mxCell id="fkUaX-CMWPnIh5y6sNUz-51" value="&lt;br&gt;&lt;div&gt;&lt;br&gt;&lt;/div&gt;" style="edgeLabel;html=1;align=center;verticalAlign=middle;resizable=0;points=[];" connectable="0" vertex="1" parent="fkUaX-CMWPnIh5y6sNUz-50">
          <mxGeometry x="0.8736" y="4" relative="1" as="geometry">
            <mxPoint as="offset" />
          </mxGeometry>
        </mxCell>
        <mxCell id="fkUaX-CMWPnIh5y6sNUz-57" value="" style="html=1;points=[[0,0,0,0,5],[0,1,0,0,-5],[1,0,0,0,5],[1,1,0,0,-5]];perimeter=orthogonalPerimeter;outlineConnect=0;targetShapes=umlLifeline;portConstraint=eastwest;newEdgeStyle={&quot;curved&quot;:0,&quot;rounded&quot;:0};" vertex="1" parent="1">
          <mxGeometry x="210" y="390" width="10" height="90" as="geometry" />
        </mxCell>
        <mxCell id="fkUaX-CMWPnIh5y6sNUz-58" value="" style="endArrow=none;dashed=1;html=1;dashPattern=1 3;strokeWidth=2;rounded=0;" edge="1" parent="1" source="fkUaX-CMWPnIh5y6sNUz-57">
          <mxGeometry width="50" height="50" relative="1" as="geometry">
            <mxPoint x="215.1" y="482.5" as="sourcePoint" />
            <mxPoint x="214.72" y="290" as="targetPoint" />
          </mxGeometry>
        </mxCell>
        <mxCell id="fkUaX-CMWPnIh5y6sNUz-59" value="&lt;font style=&quot;font-size: 8px;&quot;&gt;16.Muestra mensaje de éxito al usuario&lt;/font&gt;" style="html=1;verticalAlign=bottom;endArrow=open;dashed=1;endSize=8;curved=0;rounded=0;" edge="1" parent="1">
          <mxGeometry x="0.0345" relative="1" as="geometry">
            <mxPoint x="210" y="439.09000000000003" as="sourcePoint" />
            <mxPoint x="65" y="439.09" as="targetPoint" />
            <mxPoint as="offset" />
          </mxGeometry>
        </mxCell>
        <mxCell id="fkUaX-CMWPnIh5y6sNUz-60" value="&lt;br&gt;&lt;div&gt;&lt;br&gt;&lt;/div&gt;" style="edgeLabel;html=1;align=center;verticalAlign=middle;resizable=0;points=[];" connectable="0" vertex="1" parent="fkUaX-CMWPnIh5y6sNUz-59">
          <mxGeometry x="0.8736" y="4" relative="1" as="geometry">
            <mxPoint as="offset" />
          </mxGeometry>
        </mxCell>
        <mxCell id="iNZ6uj20OU68bGzJzCmg-1" value="&lt;font style=&quot;font-size: 8px;&quot;&gt;&lt;font style=&quot;&quot;&gt;12.&lt;/font&gt;&lt;span style=&quot;background-color: light-dark(#ffffff, var(--ge-dark-color, #121212)); color: light-dark(rgb(0, 0, 0), rgb(255, 255, 255));&quot;&gt;Envía confirmación a sqlx&lt;/span&gt;&lt;/font&gt;" style="html=1;verticalAlign=bottom;endArrow=open;dashed=1;endSize=8;curved=0;rounded=0;" edge="1" parent="1">
          <mxGeometry x="-0.2" relative="1" as="geometry">
            <mxPoint x="875" y="400" as="sourcePoint" />
            <mxPoint x="725" y="400" as="targetPoint" />
            <mxPoint as="offset" />
          </mxGeometry>
        </mxCell>
        <mxCell id="iNZ6uj20OU68bGzJzCmg-2" value="&lt;br&gt;&lt;div&gt;&lt;br&gt;&lt;/div&gt;" style="edgeLabel;html=1;align=center;verticalAlign=middle;resizable=0;points=[];" connectable="0" vertex="1" parent="iNZ6uj20OU68bGzJzCmg-1">
          <mxGeometry x="0.8736" y="4" relative="1" as="geometry">
            <mxPoint as="offset" />
          </mxGeometry>
        </mxCell>
        <mxCell id="egrwQM4IbuSERzKWMbnG-4" value="&lt;font style=&quot;font-size: 10px;&quot;&gt;C_Webview2&lt;/font&gt;" style="html=1;whiteSpace=wrap;fillColor=#E1D5E7;" vertex="1" parent="1">
          <mxGeometry x="320" y="80" width="70" height="27.5" as="geometry" />
        </mxCell>
        <mxCell id="HECIfwBaCaFRKkH54YTg-2" value="" style="endArrow=block;endFill=1;html=1;edgeStyle=orthogonalEdgeStyle;align=left;verticalAlign=top;rounded=0;" edge="1" parent="1">
          <mxGeometry x="-1" relative="1" as="geometry">
            <mxPoint x="220" y="289.09" as="sourcePoint" />
            <mxPoint x="350" y="289.09" as="targetPoint" />
          </mxGeometry>
        </mxCell>
        <mxCell id="HECIfwBaCaFRKkH54YTg-3" value="&lt;font style=&quot;font-size: 8px;&quot;&gt;6.Valida confirmación&amp;nbsp;&lt;/font&gt;&lt;span style=&quot;font-size: 8px; background-color: light-dark(#ffffff, var(--ge-dark-color, #121212)); color: light-dark(rgb(0, 0, 0), rgb(255, 255, 255));&quot;&gt;y&amp;nbsp;&lt;/span&gt;&lt;div&gt;&lt;span style=&quot;font-size: 8px; background-color: light-dark(#ffffff, var(--ge-dark-color, #121212)); color: light-dark(rgb(0, 0, 0), rgb(255, 255, 255));&quot;&gt;envía al controlador&lt;/span&gt;&lt;/div&gt;" style="edgeLabel;resizable=0;html=1;align=left;verticalAlign=bottom;" connectable="0" vertex="1" parent="HECIfwBaCaFRKkH54YTg-2">
          <mxGeometry x="-1" relative="1" as="geometry">
            <mxPoint x="20" as="offset" />
          </mxGeometry>
        </mxCell>
        <mxCell id="HECIfwBaCaFRKkH54YTg-4" value="" style="endArrow=none;dashed=1;html=1;dashPattern=1 3;strokeWidth=2;rounded=0;" edge="1" parent="1" source="HECIfwBaCaFRKkH54YTg-5">
          <mxGeometry width="50" height="50" relative="1" as="geometry">
            <mxPoint x="354.93" y="332.5" as="sourcePoint" />
            <mxPoint x="354.55" y="140" as="targetPoint" />
          </mxGeometry>
        </mxCell>
        <mxCell id="HECIfwBaCaFRKkH54YTg-6" value="" style="endArrow=none;dashed=1;html=1;dashPattern=1 3;strokeWidth=2;rounded=0;" edge="1" parent="1" source="HECIfwBaCaFRKkH54YTg-9" target="HECIfwBaCaFRKkH54YTg-5">
          <mxGeometry width="50" height="50" relative="1" as="geometry">
            <mxPoint x="355" y="492.4242609197443" as="sourcePoint" />
            <mxPoint x="354.55" y="140" as="targetPoint" />
          </mxGeometry>
        </mxCell>
        <mxCell id="HECIfwBaCaFRKkH54YTg-5" value="" style="html=1;points=[[0,0,0,0,5],[0,1,0,0,-5],[1,0,0,0,5],[1,1,0,0,-5]];perimeter=orthogonalPerimeter;outlineConnect=0;targetShapes=umlLifeline;portConstraint=eastwest;newEdgeStyle={&quot;curved&quot;:0,&quot;rounded&quot;:0};" vertex="1" parent="1">
          <mxGeometry x="350" y="275" width="10" height="30" as="geometry" />
        </mxCell>
        <mxCell id="HECIfwBaCaFRKkH54YTg-7" value="&lt;font style=&quot;font-size: 8px;&quot;&gt;7. Percibe un cambio en&amp;nbsp;&lt;/font&gt;&lt;span style=&quot;font-size: 8px; background-color: light-dark(#ffffff, var(--ge-dark-color, #121212)); color: light-dark(rgb(0, 0, 0), rgb(255, 255, 255));&quot;&gt;la pestaña&amp;nbsp;&amp;nbsp;&lt;/span&gt;&lt;div&gt;&lt;span style=&quot;font-size: 8px; color: light-dark(rgb(0, 0, 0), rgb(255, 255, 255)); background-color: light-dark(#ffffff, var(--ge-dark-color, #121212));&quot;&gt;y notifica&amp;nbsp;&lt;/span&gt;&lt;span style=&quot;font-size: 8px; background-color: light-dark(#ffffff, var(--ge-dark-color, #121212)); color: light-dark(rgb(0, 0, 0), rgb(255, 255, 255));&quot;&gt;el evento&lt;/span&gt;&lt;/div&gt;" style="html=1;verticalAlign=bottom;endArrow=block;curved=0;rounded=0;align=left;" edge="1" parent="1">
          <mxGeometry x="-0.7333" width="80" relative="1" as="geometry">
            <mxPoint x="360" y="300" as="sourcePoint" />
            <mxPoint x="510" y="300" as="targetPoint" />
            <Array as="points">
              <mxPoint x="445" y="300" />
            </Array>
            <mxPoint as="offset" />
          </mxGeometry>
        </mxCell>
        <mxCell id="HECIfwBaCaFRKkH54YTg-8" value="&lt;div&gt;&lt;font style=&quot;font-size: 8px;&quot;&gt;13. Transferir los&amp;nbsp;&lt;span style=&quot;background-color: light-dark(#ffffff, var(--ge-dark-color, #121212)); color: light-dark(rgb(0, 0, 0), rgb(255, 255, 255));&quot;&gt;datos al controlador&lt;/span&gt;&lt;/font&gt;&lt;/div&gt;" style="html=1;verticalAlign=bottom;endArrow=open;dashed=1;endSize=8;curved=0;rounded=0;" edge="1" parent="1" target="fkUaX-CMWPnIh5y6sNUz-30">
          <mxGeometry x="0.0043" relative="1" as="geometry">
            <mxPoint x="715" y="410" as="sourcePoint" />
            <mxPoint x="536" y="410" as="targetPoint" />
            <mxPoint as="offset" />
          </mxGeometry>
        </mxCell>
        <mxCell id="HECIfwBaCaFRKkH54YTg-10" value="" style="endArrow=none;dashed=1;html=1;dashPattern=1 3;strokeWidth=2;rounded=0;" edge="1" parent="1" target="HECIfwBaCaFRKkH54YTg-9">
          <mxGeometry width="50" height="50" relative="1" as="geometry">
            <mxPoint x="355" y="480" as="sourcePoint" />
            <mxPoint x="355" y="305" as="targetPoint" />
          </mxGeometry>
        </mxCell>
        <mxCell id="HECIfwBaCaFRKkH54YTg-9" value="" style="html=1;points=[[0,0,0,0,5],[0,1,0,0,-5],[1,0,0,0,5],[1,1,0,0,-5]];perimeter=orthogonalPerimeter;outlineConnect=0;targetShapes=umlLifeline;portConstraint=eastwest;newEdgeStyle={&quot;curved&quot;:0,&quot;rounded&quot;:0};" vertex="1" parent="1">
          <mxGeometry x="350" y="400" width="10" height="30" as="geometry" />
        </mxCell>
        <mxCell id="fkUaX-CMWPnIh5y6sNUz-11" value="&lt;font style=&quot;font-size: 10px;&quot;&gt;C_MySQL&lt;/font&gt;" style="html=1;whiteSpace=wrap;fillColor=#DAE8FC;" vertex="1" parent="1">
          <mxGeometry x="845" y="80" width="70" height="27.5" as="geometry" />
        </mxCell>
        <mxCell id="HECIfwBaCaFRKkH54YTg-12" value="&lt;font style=&quot;font-size: 8px;&quot;&gt;14. Procesa los datos&amp;nbsp;&lt;/font&gt;&lt;span style=&quot;font-size: 8px; background-color: light-dark(#ffffff, var(--ge-dark-color, #121212)); color: light-dark(rgb(0, 0, 0), rgb(255, 255, 255));&quot;&gt;y se&amp;nbsp;&lt;/span&gt;&lt;div&gt;&lt;span style=&quot;font-size: 8px; background-color: light-dark(#ffffff, var(--ge-dark-color, #121212)); color: light-dark(rgb(0, 0, 0), rgb(255, 255, 255));&quot;&gt;envían a webview&lt;/span&gt;&lt;/div&gt;" style="html=1;verticalAlign=bottom;endArrow=open;dashed=1;endSize=8;curved=0;rounded=0;align=left;" edge="1" parent="1">
          <mxGeometry x="0.3793" relative="1" as="geometry">
            <mxPoint x="510" y="420" as="sourcePoint" />
            <mxPoint x="365" y="420" as="targetPoint" />
            <mxPoint as="offset" />
          </mxGeometry>
        </mxCell>
        <mxCell id="HECIfwBaCaFRKkH54YTg-13" value="&lt;font style=&quot;font-size: 8px;&quot;&gt;15.Crear los&amp;nbsp;&lt;/font&gt;&lt;span style=&quot;font-size: 8px; background-color: light-dark(#ffffff, var(--ge-dark-color, #121212)); color: light-dark(rgb(0, 0, 0), rgb(255, 255, 255));&quot;&gt;componentes&lt;/span&gt;&lt;div&gt;&lt;div&gt;&lt;font style=&quot;font-size: 8px;&quot;&gt;&amp;nbsp;para&amp;nbsp;&amp;nbsp;&lt;span style=&quot;color: light-dark(rgb(0, 0, 0), rgb(255, 255, 255));&quot;&gt;que sean&amp;nbsp;&lt;/span&gt;&lt;/font&gt;&lt;span style=&quot;font-size: 8px; color: light-dark(rgb(0, 0, 0), rgb(255, 255, 255)); background-color: light-dark(#ffffff, var(--ge-dark-color, #121212));&quot;&gt;visualizados&lt;/span&gt;&lt;/div&gt;&lt;/div&gt;" style="html=1;verticalAlign=bottom;endArrow=open;dashed=1;endSize=8;curved=0;rounded=0;align=left;" edge="1" parent="1">
          <mxGeometry x="0.6923" relative="1" as="geometry">
            <mxPoint x="350" y="429.09" as="sourcePoint" />
            <mxPoint x="220" y="429.21999999999997" as="targetPoint" />
            <mxPoint as="offset" />
          </mxGeometry>
        </mxCell>
        <mxCell id="utJb6sWU1eI9iHNADkDD-1" value="&lt;font style=&quot;font-size: 8px;&quot;&gt;4.solicita confirmación explícita al usuario&lt;/font&gt;" style="html=1;verticalAlign=bottom;endArrow=open;dashed=1;endSize=8;curved=0;rounded=0;align=left;" edge="1" parent="1">
          <mxGeometry x="1" relative="1" as="geometry">
            <mxPoint x="210.00000000000006" y="260" as="sourcePoint" />
            <mxPoint x="60" y="260" as="targetPoint" />
            <mxPoint as="offset" />
          </mxGeometry>
        </mxCell>
        <mxCell id="utJb6sWU1eI9iHNADkDD-2" value="&lt;br&gt;&lt;div&gt;&lt;br&gt;&lt;/div&gt;" style="edgeLabel;html=1;align=center;verticalAlign=middle;resizable=0;points=[];" connectable="0" vertex="1" parent="utJb6sWU1eI9iHNADkDD-1">
          <mxGeometry x="0.8736" y="4" relative="1" as="geometry">
            <mxPoint as="offset" />
          </mxGeometry>
        </mxCell>
      </root>
    </mxGraphModel>
  </diagram>
</mxfile>
